HIERARCHY
ROOT hip
{
	OFFSET 0.000000 0.000000 0.000000 
	CHANNELS 6 Xposition Yposition Zposition Xrotation Zrotation Yrotation
	JOINT abdomen
	{
		OFFSET 0.000000 3.402643 0.000000 
		CHANNELS 3 Xrotation Zrotation Yrotation
		JOINT chest
		{
			OFFSET 0.000000 8.438565 -0.680529 
			CHANNELS 3 Xrotation Zrotation Yrotation
			JOINT neck
			{
				OFFSET 0.000000 10.207942 -0.272212 
				CHANNELS 3 Xrotation Zrotation Yrotation
				JOINT head
				{
					OFFSET 0.000000 3.130431 0.000000 
					CHANNELS 3 Xrotation Zrotation Yrotation
					End Site
					{
						OFFSET 0.000000 3.130435 0.000000 
					}
				}
			}
			JOINT lCollar
			{
				OFFSET 3.470700 6.669187 -0.816635 
				CHANNELS 3 Yrotation Zrotation Xrotation
				JOINT lShldr
				{
					OFFSET 3.198488 0.000000 0.000000 
					CHANNELS 3 Zrotation Yrotation Xrotation
					JOINT lForeArm
					{
						OFFSET 10.139888 0.000000 0.000000 
						CHANNELS 3 Yrotation Zrotation Xrotation
						JOINT lHand
						{
							OFFSET 8.370511 0.000000 0.000000 
							CHANNELS 3 Zrotation Yrotation Xrotation
							End Site
							{
								OFFSET 4.083176 0.000000 0.000000 
							}
						}
					}
				}
			}
			JOINT rCollar
			{
				OFFSET -3.470700 6.669187 -0.816635 
				CHANNELS 3 Yrotation Zrotation Xrotation
				JOINT rShldr
				{
					OFFSET -3.198488 0.000000 0.000000 
					CHANNELS 3 Zrotation Yrotation Xrotation
					JOINT rForeArm
					{
						OFFSET -10.139888 0.000000 0.000000 
						CHANNELS 3 Yrotation Zrotation Xrotation
						JOINT rHand
						{
							OFFSET -8.370511 0.000000 0.000000 
							CHANNELS 3 Zrotation Yrotation Xrotation
							End Site
							{
								OFFSET -4.083176 0.000000 0.000000 
							}
						}
					}
				}
			}
		}
	}
	JOINT lThigh
	{
		OFFSET 5.308129 -1.633274 1.361059 
		CHANNELS 3 Xrotation Zrotation Yrotation
		JOINT lShin
		{
			OFFSET -2.041588 -20.007561 0.000000 
			CHANNELS 3 Xrotation Zrotation Yrotation
			JOINT lFoot
			{
				OFFSET 0.000000 -19.190928 -1.224953 
				CHANNELS 3 Xrotation Yrotation Zrotation
				End Site
				{
					OFFSET 0.000000 -2.449906 4.627600 
				}
			}
		}
	}
	JOINT rThigh
	{
		OFFSET -5.308129 -1.633274 1.361059 
		CHANNELS 3 Xrotation Zrotation Yrotation
		JOINT rShin
		{
			OFFSET 2.041588 -20.007561 0.000000 
			CHANNELS 3 Xrotation Zrotation Yrotation
			JOINT rFoot
			{
				OFFSET 0.000000 -19.190928 -1.224953 
				CHANNELS 3 Xrotation Yrotation Zrotation
				End Site
				{
					OFFSET 0.000000 -2.449906 4.627600 
				}
			}
		}
	}
}
MOTION
Frames: 13
Frame Time: 0.016667
-0.030570 73.507843 -0.278650 7.305140 -3.022190 4.758750 -17.364901 0.886909 2.338110 23.010099 -2.458680 1.242020 10.583800 6.941320 -12.572600 9.187970 6.505930 -6.218050 2.000000 -2.000000 0.000000 101.356003 169.951996 3.716400 28.476900 -0.335023 0.065247 0.063587 -0.063277 -156.404007 -2.000000 2.000000 0.000000 -98.505501 -173.742004 -4.693710 -55.518101 0.292251 0.112702 -0.054442 0.006019 -135.584000 -11.640995 -0.137136 -4.825473 19.382084 2.639384 1.589815 -19.674328 -11.767536 -4.699997 -17.166685 3.649004 -5.908478 21.616920 -2.159601 -1.949465 -6.457452 -10.691409 -2.435497 
-0.094919 73.436401 -0.379883 7.631030 -1.868090 4.749580 -17.400101 0.568975 2.601320 22.882900 -2.380850 1.319000 11.048900 6.581050 -11.792500 9.255680 6.417560 -5.837410 2.000000 -2.000000 0.000000 101.834000 170.360001 4.557200 28.760099 -0.334700 0.065840 0.053425 -0.052376 -155.973999 -2.000000 2.000000 0.000000 -98.134399 -173.285004 -5.476130 -55.039600 0.293189 0.112051 -0.054459 0.005336 -135.339996 -11.827982 -1.040749 -4.518107 20.140568 2.586432 1.657407 -18.984497 -13.615317 -5.254827 -17.836294 2.642632 -5.295084 23.498743 -2.223912 -2.050420 -10.871341 -10.143897 -3.108303 
-0.149828 73.349785 -0.501144 7.998930 -0.851015 4.850990 -17.379499 0.202996 2.736120 22.863300 -2.371130 1.320210 11.489200 6.129840 -10.994200 9.322650 6.270860 -5.442820 2.000000 -2.000000 0.000000 102.274002 171.022995 5.056810 29.023800 -0.334396 0.066390 0.053080 -0.051366 -155.593994 -2.000000 2.000000 0.000000 -97.812202 -173.089996 -5.857480 -54.463402 0.294312 0.111258 -0.054464 0.005172 -135.281006 -12.551585 -1.763468 -3.944263 21.685438 2.544060 1.771063 -17.635130 -15.404423 -5.549525 -18.222839 1.775350 -4.658618 24.411846 -2.246708 -2.124389 -14.098736 -9.386240 -3.438526 
-0.205310 73.268005 -0.646432 8.203560 -0.589608 5.022330 -17.253799 0.016540 2.710550 22.922300 -2.556420 1.271050 11.990500 5.655480 -10.091800 9.409030 6.104500 -4.979970 2.000000 -2.000000 0.000000 102.586998 172.000000 5.049350 29.287399 -0.334089 0.066940 0.052596 -0.049913 -155.046997 -2.000000 2.000000 0.000000 -97.607201 -173.167999 -5.925640 -53.730999 0.295728 0.110233 -0.054465 0.005117 -135.261993 -13.871140 -1.535043 -3.207345 24.484047 2.547344 1.978446 -15.694861 -16.963243 -5.391647 -18.116579 1.805705 -4.274133 24.459801 -2.254368 -2.115290 -15.865728 -8.884771 -3.582257 
-0.259650 73.223633 -0.806884 8.360390 -0.888892 5.318460 -17.079300 0.034963 2.620310 23.059700 -2.809820 1.234310 12.510200 5.118160 -9.334200 9.514690 5.908770 -4.586760 2.000000 -2.000000 0.000000 102.723999 173.250000 4.925360 29.531601 -0.333803 0.067447 0.052094 -0.048351 -154.460999 -2.000000 2.000000 0.000000 -97.548698 -173.403000 -6.022700 -52.705601 0.297687 0.108768 -0.054493 0.004242 -134.949005 -15.672101 -0.692194 -2.618058 28.010313 2.499982 2.199854 -12.942348 -18.165949 -4.741351 -17.596111 2.451814 -4.043897 23.589138 -2.212576 -2.075598 -16.544680 -9.032445 -3.775125 
-0.320567 73.240143 -0.969896 8.527680 -1.323100 5.738950 -16.853701 0.216810 2.632880 23.265400 -3.004460 1.273620 13.015500 4.280570 -8.795100 9.618960 5.596470 -4.294510 2.000000 -2.000000 0.000000 102.764000 174.880997 5.036650 29.678101 -0.333631 0.067751 0.051711 -0.047124 -154.001999 -2.000000 2.000000 0.000000 -97.607498 -173.785004 -6.479660 -51.279800 0.300368 0.106673 -0.054573 0.002275 -134.246002 -17.820953 0.224403 -2.309268 31.995054 2.445495 2.474864 -9.124468 -19.182241 -3.590824 -16.889265 3.229651 -3.742714 22.296703 -2.159397 -2.013839 -17.142532 -9.585508 -4.113266 
-0.398071 73.304504 -1.137774 8.666440 -1.805340 6.101660 -16.595501 0.521109 2.833650 23.480900 -3.101430 1.413620 13.548500 3.179610 -8.330830 9.722080 5.177370 -4.022830 2.000000 -2.000000 0.000000 102.647003 176.764999 5.207700 29.795200 -0.333492 0.067994 0.051339 -0.045894 -153.542999 -2.000000 2.000000 0.000000 -97.734802 -174.246002 -7.279350 -49.570801 0.303511 0.104075 -0.054708 -0.000210 -133.356995 -19.981159 1.152598 -2.181167 35.564983 2.339444 2.668019 -5.192237 -19.372463 -2.183175 -16.116232 4.032010 -3.077770 20.662554 -2.079543 -1.935869 -17.506649 -10.373296 -4.577852 
-0.491021 73.394943 -1.308225 8.883040 -2.113040 6.202890 -16.356800 0.785072 3.038320 23.656601 -3.003420 1.565640 14.118700 2.135910 -7.775090 9.835270 4.768030 -3.692360 2.000000 -2.000000 0.000000 102.363998 178.436005 4.644990 30.176100 -0.333038 0.068781 0.050946 -0.044556 -153.044998 -2.000000 2.000000 0.000000 -97.988998 -174.832993 -7.688110 -47.793400 0.306696 0.101274 -0.054874 -0.002583 -132.507996 -21.941936 1.898938 -2.007080 38.102703 2.256485 2.853037 -2.920277 -18.864470 -1.310063 -15.503092 4.626742 -2.007546 19.143820 -2.016261 -1.850845 -17.742887 -11.237727 -5.033352 
-0.575957 73.494698 -1.473239 9.137170 -2.121200 6.084560 -16.092800 0.892171 3.046380 23.841499 -2.690890 1.583610 14.514900 1.131980 -6.911970 9.919740 4.407690 -3.205300 2.000000 -2.000000 0.000000 101.933998 179.621002 3.192530 31.055000 -0.331970 0.070586 0.050817 -0.044109 -152.878998 -2.000000 2.000000 0.000000 -98.457703 -175.641998 -7.324860 -46.025799 0.309776 0.098393 -0.055074 -0.004954 -131.658005 -23.489307 2.222055 -1.721938 39.177456 2.176129 2.939566 -3.062386 -18.185993 -1.216420 -15.063422 4.744117 -0.918759 17.898504 -1.962838 -1.762420 -17.831200 -12.013245 -5.423297 
-0.629729 73.596481 -1.624244 9.321260 -1.840620 5.947780 -15.877100 0.827057 3.094320 23.948500 -2.495630 1.599900 14.846500 0.107837 -6.046990 9.935370 3.999520 -2.699100 2.000000 -2.000000 0.000000 101.864998 -179.654007 2.227340 32.363602 -0.330329 0.073242 0.051401 -0.046104 -153.621002 -2.000000 2.000000 0.000000 -98.750702 -176.345001 -6.932560 -44.297298 0.312700 0.095485 -0.055222 -0.006478 -131.110992 -24.371233 2.051903 -1.375737 38.559772 2.175296 2.904106 -4.159306 -17.517866 -1.449291 -14.659733 4.338167 -0.157714 16.983912 -1.953518 -1.722661 -17.873821 -12.499147 -5.665592 
-0.654895 73.694328 -1.746367 9.446390 -1.444990 5.823890 -15.773800 0.677557 3.388770 23.987700 -2.505270 1.714800 15.173700 -0.854462 -5.611760 9.921680 3.562500 -2.413510 2.000000 -2.000000 0.000000 102.196999 -179.332001 2.452660 33.867500 -0.328368 0.076247 0.052682 -0.050173 -155.143997 -2.000000 2.000000 0.000000 -98.702003 -176.619003 -7.127220 -42.734798 0.315268 0.092781 -0.055255 -0.006805 -130.994003 -24.497835 1.582522 -0.879634 36.097210 2.203808 2.781467 -4.460080 -17.021667 -1.484857 -14.215961 3.683379 0.378694 16.181152 -1.971647 -1.625011 -17.925726 -12.912690 -5.877293 
-0.660329 73.776672 -1.832744 9.562510 -1.155600 5.605960 -15.746500 0.564868 3.754050 24.075899 -2.602510 1.861210 15.453700 -1.651180 -5.557790 9.879470 3.183970 -2.308280 2.000000 -2.000000 0.000000 102.685997 -179.313995 3.273020 35.459400 -0.326208 0.079371 0.063946 -0.064281 -156.785004 -2.000000 2.000000 0.000000 -98.604401 -176.610001 -7.478810 -41.533600 0.317190 0.090655 -0.055216 -0.006424 -131.130997 -24.101048 1.154662 -0.199873 32.413670 2.266247 2.564391 -3.473562 -16.614655 -1.158282 -13.746946 3.082611 0.948533 15.419222 -1.980849 -1.554677 -17.979086 -13.328890 -6.104360 
-0.629442 73.826546 -1.894226 9.562410 -1.126710 5.366690 -15.695600 0.507444 3.850320 24.232800 -2.757990 1.892920 15.605000 -2.550910 -5.294890 9.818190 2.834660 -2.122420 2.000000 -2.000000 0.000000 103.056999 -179.490997 3.731610 37.070702 -0.323934 0.082471 0.064830 -0.056901 -157.692993 -2.000000 2.000000 0.000000 -98.721603 -176.628998 -7.468990 -40.693802 0.318508 0.089146 -0.055141 -0.005662 -131.404007 -23.294704 0.858906 0.439943 28.325699 2.313366 2.325815 -0.363776 -15.719666 -0.217683 -13.275760 2.682118 1.201841 14.814304 -1.994628 -1.500779 -17.887487 -13.650244 -6.230270 
